<?xml version="1.0" encoding="UTF-8" standalone="no"?>
<!-- Created with matplotlib (https://matplotlib.org/) -->

<svg
   height="345.6pt"
   version="1.1"
   viewBox="0 0 460.8 345.6"
   width="460.8pt"
   id="svg5779"
   sodipodi:docname="m3-317xf7f70945_logic.svg"
   inkscape:version="1.1 (c4e8f9ed74, 2021-05-24)"
   xmlns:inkscape="http://www.inkscape.org/namespaces/inkscape"
   xmlns:sodipodi="http://sodipodi.sourceforge.net/DTD/sodipodi-0.dtd"
   xmlns:xlink="http://www.w3.org/1999/xlink"
   xmlns="http://www.w3.org/2000/svg"
   xmlns:svg="http://www.w3.org/2000/svg">
  <sodipodi:namedview
     id="namedview5781"
     pagecolor="#ffffff"
     bordercolor="#666666"
     borderopacity="1.0"
     inkscape:pageshadow="2"
     inkscape:pageopacity="0.0"
     inkscape:pagecheckerboard="0"
     inkscape:document-units="pt"
     showgrid="false"
     inkscape:zoom="2.8284271"
     inkscape:cx="271.529"
     inkscape:cy="298.04551"
     inkscape:window-width="2560"
     inkscape:window-height="1416"
     inkscape:window-x="0"
     inkscape:window-y="0"
     inkscape:window-maximized="1"
     inkscape:current-layer="svg5779" />
  <defs
     id="defs5281">
    <style
       type="text/css"
       id="style5279">
*{stroke-linecap:butt;stroke-linejoin:round;white-space:pre;}
  </style>
  </defs>
  <g
     id="axes_1">
    <g
       id="LineCollection_1">
      <path
         clip-path="url(#p4aab9bb150)"
         d="M 213.53356,117.04519 253.53898,99.130809"
         style="fill:none;stroke:#000000"
         id="path5286" />
      <path
         clip-path="url(#p4aab9bb150)"
         d="m 213.53356,117.04519 -39.69189,-9.15171"
         style="fill:none;stroke:#000000"
         id="path5288" />
      <path
         clip-path="url(#p4aab9bb150)"
         d="M 253.53898,99.130809 276.8502,135.27659"
         style="fill:none;stroke:#000000"
         id="path5290" />
      <path
         clip-path="url(#p4aab9bb150)"
         d="M 253.53898,99.130809 278.65456,18.478038"
         style="fill:none;stroke:#000000"
         id="path5292" />
      <path
         clip-path="url(#p4aab9bb150)"
         d="M 253.53898,99.130809 250.67246,36.736655"
         style="fill:none;stroke:#000000"
         id="path5294" />
      <path
         clip-path="url(#p4aab9bb150)"
         d="m 173.84167,107.89348 -39.16014,15.37649"
         style="fill:none;stroke:#000000"
         id="path5296" />
      <path
         clip-path="url(#p4aab9bb150)"
         d="M 173.84167,107.89348 169.43088,55.547695"
         style="fill:none;stroke:#000000"
         id="path5298" />
      <path
         clip-path="url(#p4aab9bb150)"
         d="m 276.8502,135.27659 43.07956,42.79581"
         style="fill:none;stroke:#000000"
         id="path5300" />
      <path
         clip-path="url(#p4aab9bb150)"
         d="M 134.68153,123.26997 103.76969,165.4763"
         style="fill:none;stroke:#000000"
         id="path5302" />
      <path
         clip-path="url(#p4aab9bb150)"
         d="M 134.68153,123.26997 108.35897,46.045236"
         style="fill:none;stroke:#000000"
         id="path5304" />
      <path
         clip-path="url(#p4aab9bb150)"
         d="m 319.92976,178.0724 35.57316,20.20326"
         style="fill:none;stroke:#000000"
         id="path5306" />
      <path
         clip-path="url(#p4aab9bb150)"
         d="m 319.92976,178.0724 -5.33982,80.16665"
         style="fill:none;stroke:#000000"
         id="path5308" />
      <path
         clip-path="url(#p4aab9bb150)"
         d="m 319.92976,178.0724 16.46696,-39.99791"
         style="fill:none;stroke:#000000"
         id="path5310" />
      <path
         clip-path="url(#p4aab9bb150)"
         d="M 103.76969,165.4763 83.063112,237.87228"
         style="fill:none;stroke:#000000"
         id="path5312" />
      <path
         clip-path="url(#p4aab9bb150)"
         d="M 103.76969,165.4763 68.690489,133.97175"
         style="fill:none;stroke:#000000"
         id="path5314" />
      <path
         clip-path="url(#p4aab9bb150)"
         d="m 355.50292,198.27566 41.76547,8.10961"
         style="fill:none;stroke:#000000"
         id="path5316" />
      <path
         clip-path="url(#p4aab9bb150)"
         d="m 83.063112,237.87228 -32.219927,52.5104"
         style="fill:none;stroke:#000000"
         id="path5318" />
      <path
         clip-path="url(#p4aab9bb150)"
         d="m 397.26839,206.38527 41.36467,8.72099"
         style="fill:none;stroke:#000000"
         id="path5320" />
      <path
         clip-path="url(#p4aab9bb150)"
         d="M 50.843185,290.38268 22.166938,327.12196"
         style="fill:none;stroke:#000000"
         id="path5322" />
    </g>
    <g
       id="PathCollection_1">
      <defs
         id="defs5326">
        <path
           d="M 0,3.535534 C 0.937635,3.535534 1.836992,3.163008 2.5,2.5 3.163008,1.836992 3.535534,0.937635 3.535534,0 3.535534,-0.937635 3.163008,-1.836992 2.5,-2.5 1.836992,-3.163008 0.937635,-3.535534 0,-3.535534 c -0.937635,0 -1.836992,0.372526 -2.5,1.035534 -0.663008,0.663008 -1.035534,1.562365 -1.035534,2.5 0,0.937635 0.372526,1.836992 1.035534,2.5 0.663008,0.663008 1.562365,1.035534 2.5,1.035534 z"
           id="C0_0_f1c11700b5" />
      </defs>
      <g
         clip-path="url(#p4aab9bb150)"
         id="g5330">
        <use
           style="fill:#8da0cb;stroke:#8da0cb;stroke-width:0.46698"
           x="213.53357"
           xlink:href="#C0_0_f1c11700b5"
           y="117.04519"
           id="use5328"
           width="100%"
           height="100%"
           transform="matrix(2.1414214,0,0,2.1414214,-243.73178,-133.59788)" />
      </g>
      <g
         clip-path="url(#p4aab9bb150)"
         id="g5334">
        <use
           style="fill:#8da0cb;stroke:#8da0cb;stroke-width:0.46698"
           x="253.53899"
           xlink:href="#C0_0_f1c11700b5"
           y="99.130806"
           id="use5332"
           width="100%"
           height="100%"
           transform="matrix(2.1414214,0,0,2.1414214,-289.39481,-113.15002)" />
      </g>
      <g
         clip-path="url(#p4aab9bb150)"
         id="g5338">
        <use
           style="fill:#8da0cb;stroke:#8da0cb;stroke-width:0.46698"
           x="173.84167"
           xlink:href="#C0_0_f1c11700b5"
           y="107.89348"
           id="use5336"
           width="100%"
           height="100%"
           transform="matrix(2.1414214,0,0,2.1414214,-198.4266,-123.15192)" />
      </g>
      <g
         clip-path="url(#p4aab9bb150)"
         id="g5342">
        <use
           style="fill:#8da0cb;stroke:#8da0cb;stroke-width:0.46698"
           x="276.85019"
           xlink:href="#C0_0_f1c11700b5"
           y="135.2766"
           id="use5340"
           width="100%"
           height="100%"
           transform="matrix(2.1414214,0,0,2.1414214,-316.00272,-154.4076)" />
      </g>
      <g
         clip-path="url(#p4aab9bb150)"
         id="g5346">
        <use
           style="fill:#8da0cb;stroke:#8da0cb;stroke-width:0.46698"
           x="278.65457"
           xlink:href="#C0_0_f1c11700b5"
           y="18.478039"
           id="use5344"
           width="100%"
           height="100%"
           transform="matrix(2.1414214,0,0,2.1414214,-318.06228,-21.091228)" />
      </g>
      <g
         clip-path="url(#p4aab9bb150)"
         id="g5350">
        <use
           style="fill:#8da0cb;stroke:#8da0cb;stroke-width:0.46698"
           x="250.67245"
           xlink:href="#C0_0_f1c11700b5"
           y="36.736656"
           id="use5348"
           width="100%"
           height="100%"
           transform="matrix(2.1414214,0,0,2.1414214,-286.12289,-41.932004)" />
      </g>
      <g
         clip-path="url(#p4aab9bb150)"
         id="g5354">
        <use
           style="fill:#8da0cb;stroke:#8da0cb;stroke-width:0.46698"
           x="134.68152"
           xlink:href="#C0_0_f1c11700b5"
           y="123.26997"
           id="use5352"
           width="100%"
           height="100%"
           transform="matrix(2.1414214,0,0,2.1414214,-153.72836,-140.70298)" />
      </g>
      <g
         clip-path="url(#p4aab9bb150)"
         id="g5358">
        <use
           style="fill:#8da0cb;stroke:#8da0cb;stroke-width:0.46698"
           x="169.43088"
           xlink:href="#C0_0_f1c11700b5"
           y="55.547695"
           id="use5356"
           width="100%"
           height="100%"
           transform="matrix(2.1414214,0,0,2.1414214,-193.39202,-63.403325)" />
      </g>
      <g
         clip-path="url(#p4aab9bb150)"
         id="g5362">
        <use
           style="fill:#8da0cb;stroke:#8da0cb;stroke-width:0.46698"
           x="319.92975"
           xlink:href="#C0_0_f1c11700b5"
           y="178.0724"
           id="use5360"
           width="100%"
           height="100%"
           transform="matrix(2.1414214,0,0,2.1414214,-365.17465,-203.25564)" />
      </g>
      <g
         clip-path="url(#p4aab9bb150)"
         id="g5366">
        <use
           style="fill:#8da0cb;stroke:#8da0cb;stroke-width:0.46698"
           x="103.76969"
           xlink:href="#C0_0_f1c11700b5"
           y="165.4763"
           id="use5364"
           width="100%"
           height="100%"
           transform="matrix(2.1414214,0,0,2.1414214,-118.44494,-188.87819)" />
      </g>
      <g
         clip-path="url(#p4aab9bb150)"
         id="g5370">
        <use
           style="fill:#8da0cb;stroke:#8da0cb;stroke-width:0.46698"
           x="108.35897"
           xlink:href="#C0_0_f1c11700b5"
           y="46.045235"
           id="use5368"
           width="100%"
           height="100%"
           transform="matrix(2.1414214,0,0,2.1414214,-123.68324,-52.557014)" />
      </g>
      <g
         clip-path="url(#p4aab9bb150)"
         id="g5374">
        <use
           style="fill:#8da0cb;stroke:#8da0cb;stroke-width:0.46698"
           x="355.50293"
           xlink:href="#C0_0_f1c11700b5"
           y="198.27565"
           id="use5372"
           width="100%"
           height="100%"
           transform="matrix(2.1414214,0,0,2.1414214,-405.77863,-226.31606)" />
      </g>
      <g
         clip-path="url(#p4aab9bb150)"
         id="g5378">
        <use
           style="fill:#8da0cb;stroke:#8da0cb;stroke-width:0.46698"
           x="314.58994"
           xlink:href="#C0_0_f1c11700b5"
           y="258.23904"
           id="use5376"
           width="100%"
           height="100%"
           transform="matrix(2.1414214,0,0,2.1414214,-359.07967,-294.75956)" />
      </g>
      <g
         clip-path="url(#p4aab9bb150)"
         id="g5382">
        <use
           style="fill:#8da0cb;stroke:#8da0cb;stroke-width:0.46698"
           x="336.39673"
           xlink:href="#C0_0_f1c11700b5"
           y="138.07449"
           id="use5380"
           width="100%"
           height="100%"
           transform="matrix(2.1414214,0,0,2.1414214,-383.97041,-157.60118)" />
      </g>
      <g
         clip-path="url(#p4aab9bb150)"
         id="g5386">
        <use
           style="fill:#8da0cb;stroke:#8da0cb;stroke-width:0.46698"
           x="83.06311"
           xlink:href="#C0_0_f1c11700b5"
           y="237.87228"
           id="use5384"
           width="100%"
           height="100%"
           transform="matrix(2.1414214,0,0,2.1414214,-94.810008,-271.5125)" />
      </g>
      <g
         clip-path="url(#p4aab9bb150)"
         id="g5390">
        <use
           style="fill:#8da0cb;stroke:#8da0cb;stroke-width:0.46698"
           x="68.690491"
           xlink:href="#C0_0_f1c11700b5"
           y="133.97174"
           id="use5388"
           width="100%"
           height="100%"
           transform="matrix(2.1414214,0,0,2.1414214,-78.404793,-152.91821)" />
      </g>
      <g
         clip-path="url(#p4aab9bb150)"
         id="g5394">
        <use
           style="fill:#8da0cb;stroke:#8da0cb;stroke-width:0.46698"
           x="397.26837"
           xlink:href="#C0_0_f1c11700b5"
           y="206.38527"
           id="use5392"
           width="100%"
           height="100%"
           transform="matrix(2.1414214,0,0,2.1414214,-453.4506,-235.57255)" />
      </g>
      <g
         clip-path="url(#p4aab9bb150)"
         id="g5398">
        <use
           style="fill:#8da0cb;stroke:#8da0cb;stroke-width:0.46698"
           x="50.843185"
           xlink:href="#C0_0_f1c11700b5"
           y="290.38269"
           id="use5396"
           width="100%"
           height="100%"
           transform="matrix(2.1414214,0,0,2.1414214,-58.033497,-331.449)" />
      </g>
      <g
         clip-path="url(#p4aab9bb150)"
         id="g5402">
        <use
           style="fill:#8da0cb;stroke:#8da0cb;stroke-width:0.46698"
           x="438.63306"
           xlink:href="#C0_0_f1c11700b5"
           y="215.10626"
           id="use5400"
           width="100%"
           height="100%"
           transform="matrix(2.1414214,0,0,2.1414214,-500.66514,-245.52688)" />
      </g>
      <g
         clip-path="url(#p4aab9bb150)"
         id="g5406">
        <use
           style="fill:#8da0cb;stroke:#8da0cb;stroke-width:0.46698"
           x="22.166939"
           xlink:href="#C0_0_f1c11700b5"
           y="327.12195"
           id="use5404"
           width="100%"
           height="100%"
           transform="matrix(2.1414214,0,0,2.1414214,-25.301817,-373.38398)" />
      </g>
    </g>
    <g
       id="text_1">
      <g
         clip-path="url(#p4aab9bb150)"
         id="g5430">
        <!-- m3-317 -->
        <defs
           id="defs5414">
          <path
             d="M 52,44.1875 Q 55.375,50.25 60.0625,53.125 64.75,56 71.09375,56 q 8.546875,0 13.1875,-5.984375 4.640625,-5.96875 4.640625,-17 V 0 h -9.03125 v 32.71875 q 0,7.859375 -2.796875,11.65625 -2.78125,3.8125 -8.484375,3.8125 -6.984375,0 -11.046875,-4.640625 -4.046875,-4.625 -4.046875,-12.640625 V 0 h -9.03125 v 32.71875 q 0,7.90625 -2.78125,11.6875 -2.78125,3.78125 -8.59375,3.78125 -6.890625,0 -10.953125,-4.65625 -4.046875,-4.65625 -4.046875,-12.625 V 0 h -9.03125 v 54.6875 h 9.03125 v -8.5 q 3.078125,5.03125 7.375,7.421875 Q 29.78125,56 35.6875,56 41.65625,56 45.828125,52.96875 50,49.953125 52,44.1875 Z"
             id="DejaVuSans-109" />
          <path
             d="M 40.578125,39.3125 Q 47.65625,37.796875 51.625,33 q 3.984375,-4.78125 3.984375,-11.8125 0,-10.78125 -7.421875,-16.703125 -7.421875,-5.90625 -21.09375,-5.90625 -4.578125,0 -9.4375,0.90625 -4.859375,0.90625 -10.03125,2.71875 v 9.515625 q 4.09375,-2.390625 8.96875,-3.609375 4.890625,-1.21875 10.21875,-1.21875 9.265625,0 14.125,3.65625 4.859375,3.65625 4.859375,10.640625 0,6.453125 -4.515625,10.078125 -4.515625,3.640625 -12.5625,3.640625 h -8.5 v 8.109375 h 8.890625 q 7.265625,0 11.125,2.90625 3.859375,2.90625 3.859375,8.375 0,5.609375 -3.984375,8.609375 -3.96875,3.015625 -11.390625,3.015625 -4.0625,0 -8.703125,-0.890625 Q 15.375,64.15625 9.8125,62.3125 v 8.78125 q 5.625,1.5625 10.53125,2.34375 4.90625,0.78125 9.25,0.78125 11.234375,0 17.765625,-5.109375 6.546875,-5.09375 6.546875,-13.78125 0,-6.0625 -3.46875,-10.234375 -3.46875,-4.171875 -9.859375,-5.78125 z"
             id="DejaVuSans-51" />
          <path
             d="m 4.890625,31.390625 h 26.3125 v -8 h -26.3125 z"
             id="DejaVuSans-45" />
          <path
             d="m 12.40625,8.296875 h 16.109375 v 55.625 L 10.984375,60.40625 v 8.984375 l 17.4375,3.515625 H 38.28125 V 8.296875 H 54.390625 V 0 H 12.40625 Z"
             id="DejaVuSans-49" />
          <path
             d="m 8.203125,72.90625 h 46.875 V 68.703125 L 28.609375,0 H 18.3125 L 43.21875,64.59375 H 8.203125 Z"
             id="DejaVuSans-55" />
        </defs>
        <g
           style="fill:#ffffff"
           transform="matrix(0.02,0,0,-0.02,209.65372,117.59707)"
           id="g5428">
          <use
             xlink:href="#DejaVuSans-109"
             id="use5416"
             x="0"
             y="0"
             width="100%"
             height="100%" />
          <use
             x="97.412109"
             xlink:href="#DejaVuSans-51"
             id="use5418"
             y="0"
             width="100%"
             height="100%" />
          <use
             x="161.03516"
             xlink:href="#DejaVuSans-45"
             id="use5420"
             y="0"
             width="100%"
             height="100%" />
          <use
             x="197.11914"
             xlink:href="#DejaVuSans-51"
             id="use5422"
             y="0"
             width="100%"
             height="100%" />
          <use
             x="260.74219"
             xlink:href="#DejaVuSans-49"
             id="use5424"
             y="0"
             width="100%"
             height="100%" />
          <use
             x="324.36523"
             xlink:href="#DejaVuSans-55"
             id="use5426"
             y="0"
             width="100%"
             height="100%" />
        </g>
      </g>
    </g>
    <g
       id="text_2">
      <g
         clip-path="url(#p4aab9bb150)"
         id="g5450">
        <!-- m3-312 -->
        <defs
           id="defs5434">
          <path
             d="M 19.1875,8.296875 H 53.609375 V 0 H 7.328125 v 8.296875 q 5.609375,5.8125 15.296875,15.59375 9.703125,9.796875 12.1875,12.640625 4.734375,5.3125 6.609375,9 1.890625,3.6875 1.890625,7.25 0,5.8125 -4.078125,9.46875 -4.078125,3.671875 -10.625,3.671875 -4.640625,0 -9.796875,-1.609375 -5.140625,-1.609375 -11,-4.890625 v 9.96875 Q 13.765625,71.78125 18.9375,73 q 5.1875,1.21875 9.484375,1.21875 11.328125,0 18.0625,-5.671875 6.734375,-5.65625 6.734375,-15.125 0,-4.5 -1.6875,-8.53125 Q 49.859375,40.875 45.40625,35.40625 44.1875,33.984375 37.640625,27.21875 31.109375,20.453125 19.1875,8.296875 Z"
             id="DejaVuSans-50" />
        </defs>
        <g
           style="fill:#ffffff"
           transform="matrix(0.02,0,0,-0.02,249.65914,99.682684)"
           id="g5448">
          <use
             xlink:href="#DejaVuSans-109"
             id="use5436"
             x="0"
             y="0"
             width="100%"
             height="100%" />
          <use
             x="97.412109"
             xlink:href="#DejaVuSans-51"
             id="use5438"
             y="0"
             width="100%"
             height="100%" />
          <use
             x="161.03516"
             xlink:href="#DejaVuSans-45"
             id="use5440"
             y="0"
             width="100%"
             height="100%" />
          <use
             x="197.11914"
             xlink:href="#DejaVuSans-51"
             id="use5442"
             y="0"
             width="100%"
             height="100%" />
          <use
             x="260.74219"
             xlink:href="#DejaVuSans-49"
             id="use5444"
             y="0"
             width="100%"
             height="100%" />
          <use
             x="324.36523"
             xlink:href="#DejaVuSans-50"
             id="use5446"
             y="0"
             width="100%"
             height="100%" />
        </g>
      </g>
    </g>
    <g
       id="text_3">
      <g
         clip-path="url(#p4aab9bb150)"
         id="g5467">
        <!-- m3-322 -->
        <g
           style="fill:#ffffff"
           transform="matrix(0.02,0,0,-0.02,169.96183,108.44535)"
           id="g5465">
          <use
             xlink:href="#DejaVuSans-109"
             id="use5453"
             x="0"
             y="0"
             width="100%"
             height="100%" />
          <use
             x="97.412109"
             xlink:href="#DejaVuSans-51"
             id="use5455"
             y="0"
             width="100%"
             height="100%" />
          <use
             x="161.03516"
             xlink:href="#DejaVuSans-45"
             id="use5457"
             y="0"
             width="100%"
             height="100%" />
          <use
             x="197.11914"
             xlink:href="#DejaVuSans-51"
             id="use5459"
             y="0"
             width="100%"
             height="100%" />
          <use
             x="260.74219"
             xlink:href="#DejaVuSans-50"
             id="use5461"
             y="0"
             width="100%"
             height="100%" />
          <use
             x="324.36523"
             xlink:href="#DejaVuSans-50"
             id="use5463"
             y="0"
             width="100%"
             height="100%" />
        </g>
      </g>
    </g>
    <g
       id="text_4">
      <g
         clip-path="url(#p4aab9bb150)"
         id="g5488">
        <!-- m3-308 -->
        <defs
           id="defs5472">
          <path
             d="m 31.78125,66.40625 q -7.609375,0 -11.453125,-7.5 Q 16.5,51.421875 16.5,36.375 q 0,-14.984375 3.828125,-22.484375 3.84375,-7.5 11.453125,-7.5 7.671875,0 11.5,7.5 3.84375,7.5 3.84375,22.484375 0,15.046875 -3.84375,22.53125 -3.828125,7.5 -11.5,7.5 z m 0,7.8125 q 12.265625,0 18.734375,-9.703125 6.46875,-9.6875 6.46875,-28.140625 0,-18.40625 -6.46875,-28.109375 -6.46875,-9.6875 -18.734375,-9.6875 -12.25,0 -18.71875,9.6875 Q 6.59375,17.96875 6.59375,36.375 q 0,18.453125 6.46875,28.140625 6.46875,9.703125 18.71875,9.703125 z"
             id="DejaVuSans-48" />
          <path
             d="m 31.78125,34.625 q -7.03125,0 -11.0625,-3.765625 -4.015625,-3.765625 -4.015625,-10.34375 0,-6.59375 4.015625,-10.359375 4.03125,-3.765625 11.0625,-3.765625 7.03125,0 11.078125,3.78125 4.0625,3.796875 4.0625,10.34375 0,6.578125 -4.03125,10.34375 Q 38.875,34.625 31.78125,34.625 Z m -9.859375,4.1875 Q 15.578125,40.375 12.03125,44.71875 8.5,49.078125 8.5,55.328125 q 0,8.734375 6.21875,13.8125 6.234375,5.078125 17.0625,5.078125 10.890625,0 17.09375,-5.078125 6.203125,-5.078125 6.203125,-13.8125 0,-6.25 -3.546875,-10.609375 Q 48,40.375 41.703125,38.8125 q 7.125,-1.65625 11.09375,-6.5 3.984375,-4.828125 3.984375,-11.796875 0,-10.609375 -6.46875,-16.28125 -6.46875,-5.65625 -18.53125,-5.65625 -12.046875,0 -18.53125,5.65625 -6.46875,5.671875 -6.46875,16.28125 0,6.96875 4,11.796875 4.015625,4.84375 11.140625,6.5 z M 18.3125,54.390625 q 0,-5.65625 3.53125,-8.828125 3.546875,-3.171875 9.9375,-3.171875 6.359375,0 9.9375,3.171875 3.59375,3.171875 3.59375,8.828125 0,5.671875 -3.59375,8.84375 -3.578125,3.171875 -9.9375,3.171875 -6.390625,0 -9.9375,-3.171875 Q 18.3125,60.0625 18.3125,54.390625 Z"
             id="DejaVuSans-56" />
        </defs>
        <g
           style="fill:#ffffff"
           transform="matrix(0.02,0,0,-0.02,272.97036,135.82847)"
           id="g5486">
          <use
             xlink:href="#DejaVuSans-109"
             id="use5474"
             x="0"
             y="0"
             width="100%"
             height="100%" />
          <use
             x="97.412109"
             xlink:href="#DejaVuSans-51"
             id="use5476"
             y="0"
             width="100%"
             height="100%" />
          <use
             x="161.03516"
             xlink:href="#DejaVuSans-45"
             id="use5478"
             y="0"
             width="100%"
             height="100%" />
          <use
             x="197.11914"
             xlink:href="#DejaVuSans-51"
             id="use5480"
             y="0"
             width="100%"
             height="100%" />
          <use
             x="260.74219"
             xlink:href="#DejaVuSans-48"
             id="use5482"
             y="0"
             width="100%"
             height="100%" />
          <use
             x="324.36523"
             xlink:href="#DejaVuSans-56"
             id="use5484"
             y="0"
             width="100%"
             height="100%" />
        </g>
      </g>
    </g>
    <g
       id="text_5">
      <g
         clip-path="url(#p4aab9bb150)"
         id="g5508">
        <!-- m3-306 -->
        <defs
           id="defs5492">
          <path
             d="m 33.015625,40.375 q -6.640625,0 -10.53125,-4.546875 -3.875,-4.53125 -3.875,-12.4375 0,-7.859375 3.875,-12.4375 3.890625,-4.5625 10.53125,-4.5625 6.640625,0 10.515625,4.5625 3.875,4.578125 3.875,12.4375 0,7.90625 -3.875,12.4375 Q 39.65625,40.375 33.015625,40.375 Z M 52.59375,71.296875 V 62.3125 q -3.71875,1.75 -7.5,2.671875 -3.78125,0.9375 -7.5,0.9375 -9.765625,0 -14.921875,-6.59375 -5.140625,-6.59375 -5.875,-19.921875 2.875,4.25 7.21875,6.515625 4.359375,2.265625 9.578125,2.265625 10.984375,0 17.359375,-6.671875 6.375,-6.65625 6.375,-18.125 0,-11.234375 -6.640625,-18.03125 -6.640625,-6.78125 -17.671875,-6.78125 -12.65625,0 -19.34375,9.6875 -6.6875,9.703125 -6.6875,28.109375 0,17.28125 8.203125,27.5625 8.203125,10.28125 22.015625,10.28125 3.71875,0 7.5,-0.734375 3.78125,-0.734375 7.890625,-2.1875 z"
             id="DejaVuSans-54" />
        </defs>
        <g
           style="fill:#ffffff"
           transform="matrix(0.02,0,0,-0.02,274.77472,19.029913)"
           id="g5506">
          <use
             xlink:href="#DejaVuSans-109"
             id="use5494"
             x="0"
             y="0"
             width="100%"
             height="100%" />
          <use
             x="97.412109"
             xlink:href="#DejaVuSans-51"
             id="use5496"
             y="0"
             width="100%"
             height="100%" />
          <use
             x="161.03516"
             xlink:href="#DejaVuSans-45"
             id="use5498"
             y="0"
             width="100%"
             height="100%" />
          <use
             x="197.11914"
             xlink:href="#DejaVuSans-51"
             id="use5500"
             y="0"
             width="100%"
             height="100%" />
          <use
             x="260.74219"
             xlink:href="#DejaVuSans-48"
             id="use5502"
             y="0"
             width="100%"
             height="100%" />
          <use
             x="324.36523"
             xlink:href="#DejaVuSans-54"
             id="use5504"
             y="0"
             width="100%"
             height="100%" />
        </g>
      </g>
    </g>
    <g
       id="text_6">
      <g
         clip-path="url(#p4aab9bb150)"
         id="g5525">
        <!-- m3-307 -->
        <g
           style="fill:#ffffff"
           transform="matrix(0.02,0,0,-0.02,246.79262,37.28853)"
           id="g5523">
          <use
             xlink:href="#DejaVuSans-109"
             id="use5511"
             x="0"
             y="0"
             width="100%"
             height="100%" />
          <use
             x="97.412109"
             xlink:href="#DejaVuSans-51"
             id="use5513"
             y="0"
             width="100%"
             height="100%" />
          <use
             x="161.03516"
             xlink:href="#DejaVuSans-45"
             id="use5515"
             y="0"
             width="100%"
             height="100%" />
          <use
             x="197.11914"
             xlink:href="#DejaVuSans-51"
             id="use5517"
             y="0"
             width="100%"
             height="100%" />
          <use
             x="260.74219"
             xlink:href="#DejaVuSans-48"
             id="use5519"
             y="0"
             width="100%"
             height="100%" />
          <use
             x="324.36523"
             xlink:href="#DejaVuSans-55"
             id="use5521"
             y="0"
             width="100%"
             height="100%" />
        </g>
      </g>
    </g>
    <g
       id="text_7">
      <g
         clip-path="url(#p4aab9bb150)"
         id="g5542">
        <!-- m3-327 -->
        <g
           style="fill:#ffffff"
           transform="matrix(0.02,0,0,-0.02,130.80168,123.82184)"
           id="g5540">
          <use
             xlink:href="#DejaVuSans-109"
             id="use5528"
             x="0"
             y="0"
             width="100%"
             height="100%" />
          <use
             x="97.412109"
             xlink:href="#DejaVuSans-51"
             id="use5530"
             y="0"
             width="100%"
             height="100%" />
          <use
             x="161.03516"
             xlink:href="#DejaVuSans-45"
             id="use5532"
             y="0"
             width="100%"
             height="100%" />
          <use
             x="197.11914"
             xlink:href="#DejaVuSans-51"
             id="use5534"
             y="0"
             width="100%"
             height="100%" />
          <use
             x="260.74219"
             xlink:href="#DejaVuSans-50"
             id="use5536"
             y="0"
             width="100%"
             height="100%" />
          <use
             x="324.36523"
             xlink:href="#DejaVuSans-55"
             id="use5538"
             y="0"
             width="100%"
             height="100%" />
        </g>
      </g>
    </g>
    <g
       id="text_8">
      <g
         clip-path="url(#p4aab9bb150)"
         id="g5559">
        <!-- m3-326 -->
        <g
           style="fill:#ffffff"
           transform="matrix(0.02,0,0,-0.02,165.55104,56.09957)"
           id="g5557">
          <use
             xlink:href="#DejaVuSans-109"
             id="use5545"
             x="0"
             y="0"
             width="100%"
             height="100%" />
          <use
             x="97.412109"
             xlink:href="#DejaVuSans-51"
             id="use5547"
             y="0"
             width="100%"
             height="100%" />
          <use
             x="161.03516"
             xlink:href="#DejaVuSans-45"
             id="use5549"
             y="0"
             width="100%"
             height="100%" />
          <use
             x="197.11914"
             xlink:href="#DejaVuSans-51"
             id="use5551"
             y="0"
             width="100%"
             height="100%" />
          <use
             x="260.74219"
             xlink:href="#DejaVuSans-50"
             id="use5553"
             y="0"
             width="100%"
             height="100%" />
          <use
             x="324.36523"
             xlink:href="#DejaVuSans-54"
             id="use5555"
             y="0"
             width="100%"
             height="100%" />
        </g>
      </g>
    </g>
    <g
       id="text_9">
      <g
         clip-path="url(#p4aab9bb150)"
         id="g5576">
        <!-- m3-302 -->
        <g
           style="fill:#ffffff"
           transform="matrix(0.02,0,0,-0.02,316.04991,178.62427)"
           id="g5574">
          <use
             xlink:href="#DejaVuSans-109"
             id="use5562"
             x="0"
             y="0"
             width="100%"
             height="100%" />
          <use
             x="97.412109"
             xlink:href="#DejaVuSans-51"
             id="use5564"
             y="0"
             width="100%"
             height="100%" />
          <use
             x="161.03516"
             xlink:href="#DejaVuSans-45"
             id="use5566"
             y="0"
             width="100%"
             height="100%" />
          <use
             x="197.11914"
             xlink:href="#DejaVuSans-51"
             id="use5568"
             y="0"
             width="100%"
             height="100%" />
          <use
             x="260.74219"
             xlink:href="#DejaVuSans-48"
             id="use5570"
             y="0"
             width="100%"
             height="100%" />
          <use
             x="324.36523"
             xlink:href="#DejaVuSans-50"
             id="use5572"
             y="0"
             width="100%"
             height="100%" />
        </g>
      </g>
    </g>
    <g
       id="text_10">
      <g
         clip-path="url(#p4aab9bb150)"
         id="g5593">
        <!-- m3-332 -->
        <g
           style="fill:#ffffff"
           transform="matrix(0.02,0,0,-0.02,99.889845,166.02818)"
           id="g5591">
          <use
             xlink:href="#DejaVuSans-109"
             id="use5579"
             x="0"
             y="0"
             width="100%"
             height="100%" />
          <use
             x="97.412109"
             xlink:href="#DejaVuSans-51"
             id="use5581"
             y="0"
             width="100%"
             height="100%" />
          <use
             x="161.03516"
             xlink:href="#DejaVuSans-45"
             id="use5583"
             y="0"
             width="100%"
             height="100%" />
          <use
             x="197.11914"
             xlink:href="#DejaVuSans-51"
             id="use5585"
             y="0"
             width="100%"
             height="100%" />
          <use
             x="260.74219"
             xlink:href="#DejaVuSans-51"
             id="use5587"
             y="0"
             width="100%"
             height="100%" />
          <use
             x="324.36523"
             xlink:href="#DejaVuSans-50"
             id="use5589"
             y="0"
             width="100%"
             height="100%" />
        </g>
      </g>
    </g>
    <g
       id="text_11">
      <g
         clip-path="url(#p4aab9bb150)"
         id="g5610">
        <!-- m3-333 -->
        <g
           style="fill:#ffffff"
           transform="matrix(0.02,0,0,-0.02,104.47913,46.597111)"
           id="g5608">
          <use
             xlink:href="#DejaVuSans-109"
             id="use5596"
             x="0"
             y="0"
             width="100%"
             height="100%" />
          <use
             x="97.412109"
             xlink:href="#DejaVuSans-51"
             id="use5598"
             y="0"
             width="100%"
             height="100%" />
          <use
             x="161.03516"
             xlink:href="#DejaVuSans-45"
             id="use5600"
             y="0"
             width="100%"
             height="100%" />
          <use
             x="197.11914"
             xlink:href="#DejaVuSans-51"
             id="use5602"
             y="0"
             width="100%"
             height="100%" />
          <use
             x="260.74219"
             xlink:href="#DejaVuSans-51"
             id="use5604"
             y="0"
             width="100%"
             height="100%" />
          <use
             x="324.36523"
             xlink:href="#DejaVuSans-51"
             id="use5606"
             y="0"
             width="100%"
             height="100%" />
        </g>
      </g>
    </g>
    <g
       id="text_12">
      <g
         clip-path="url(#p4aab9bb150)"
         id="g5630">
        <!-- m3-298 -->
        <defs
           id="defs5614">
          <path
             d="M 10.984375,1.515625 V 10.5 Q 14.703125,8.734375 18.5,7.8125 q 3.8125,-0.921875 7.484375,-0.921875 9.765625,0 14.90625,6.5625 5.15625,6.5625 5.890625,19.953125 -2.828125,-4.203125 -7.1875,-6.453125 -4.34375,-2.25 -9.609375,-2.25 -10.9375,0 -17.3125,6.609375 -6.375,6.625 -6.375,18.109375 0,11.21875 6.640625,18 6.640625,6.796875 17.671875,6.796875 12.65625,0 19.3125,-9.703125 6.671875,-9.6875 6.671875,-28.140625 0,-17.234375 -8.1875,-27.515625 -8.171875,-10.28125 -21.984375,-10.28125 -3.71875,0 -7.53125,0.734375 -3.796875,0.734375 -7.90625,2.203125 z m 19.625,30.90625 q 6.640625,0 10.515625,4.53125 3.890625,4.546875 3.890625,12.46875 0,7.859375 -3.890625,12.421875 -3.875,4.5625 -10.515625,4.5625 -6.640625,0 -10.515625,-4.5625 -3.875,-4.5625 -3.875,-12.421875 0,-7.921875 3.875,-12.46875 3.875,-4.53125 10.515625,-4.53125 z"
             id="DejaVuSans-57" />
        </defs>
        <g
           style="fill:#ffffff"
           transform="matrix(0.02,0,0,-0.02,351.62308,198.82753)"
           id="g5628">
          <use
             xlink:href="#DejaVuSans-109"
             id="use5616"
             x="0"
             y="0"
             width="100%"
             height="100%" />
          <use
             x="97.412109"
             xlink:href="#DejaVuSans-51"
             id="use5618"
             y="0"
             width="100%"
             height="100%" />
          <use
             x="161.03516"
             xlink:href="#DejaVuSans-45"
             id="use5620"
             y="0"
             width="100%"
             height="100%" />
          <use
             x="197.11914"
             xlink:href="#DejaVuSans-50"
             id="use5622"
             y="0"
             width="100%"
             height="100%" />
          <use
             x="260.74219"
             xlink:href="#DejaVuSans-57"
             id="use5624"
             y="0"
             width="100%"
             height="100%" />
          <use
             x="324.36523"
             xlink:href="#DejaVuSans-56"
             id="use5626"
             y="0"
             width="100%"
             height="100%" />
        </g>
      </g>
    </g>
    <g
       id="text_13">
      <g
         clip-path="url(#p4aab9bb150)"
         id="g5647">
        <!-- m3-297 -->
        <g
           style="fill:#ffffff"
           transform="matrix(0.02,0,0,-0.02,310.7101,258.79092)"
           id="g5645">
          <use
             xlink:href="#DejaVuSans-109"
             id="use5633"
             x="0"
             y="0"
             width="100%"
             height="100%" />
          <use
             x="97.412109"
             xlink:href="#DejaVuSans-51"
             id="use5635"
             y="0"
             width="100%"
             height="100%" />
          <use
             x="161.03516"
             xlink:href="#DejaVuSans-45"
             id="use5637"
             y="0"
             width="100%"
             height="100%" />
          <use
             x="197.11914"
             xlink:href="#DejaVuSans-50"
             id="use5639"
             y="0"
             width="100%"
             height="100%" />
          <use
             x="260.74219"
             xlink:href="#DejaVuSans-57"
             id="use5641"
             y="0"
             width="100%"
             height="100%" />
          <use
             x="324.36523"
             xlink:href="#DejaVuSans-55"
             id="use5643"
             y="0"
             width="100%"
             height="100%" />
        </g>
      </g>
    </g>
    <g
       id="text_14">
      <g
         clip-path="url(#p4aab9bb150)"
         id="g5664">
        <!-- m3-299 -->
        <g
           style="fill:#ffffff"
           transform="matrix(0.02,0,0,-0.02,332.51688,138.62636)"
           id="g5662">
          <use
             xlink:href="#DejaVuSans-109"
             id="use5650"
             x="0"
             y="0"
             width="100%"
             height="100%" />
          <use
             x="97.412109"
             xlink:href="#DejaVuSans-51"
             id="use5652"
             y="0"
             width="100%"
             height="100%" />
          <use
             x="161.03516"
             xlink:href="#DejaVuSans-45"
             id="use5654"
             y="0"
             width="100%"
             height="100%" />
          <use
             x="197.11914"
             xlink:href="#DejaVuSans-50"
             id="use5656"
             y="0"
             width="100%"
             height="100%" />
          <use
             x="260.74219"
             xlink:href="#DejaVuSans-57"
             id="use5658"
             y="0"
             width="100%"
             height="100%" />
          <use
             x="324.36523"
             xlink:href="#DejaVuSans-57"
             id="use5660"
             y="0"
             width="100%"
             height="100%" />
        </g>
      </g>
    </g>
    <g
       id="text_15">
      <g
         clip-path="url(#p4aab9bb150)"
         id="g5681">
        <!-- m3-338 -->
        <g
           style="fill:#ffffff"
           transform="matrix(0.02,0,0,-0.02,79.183268,238.42415)"
           id="g5679">
          <use
             xlink:href="#DejaVuSans-109"
             id="use5667"
             x="0"
             y="0"
             width="100%"
             height="100%" />
          <use
             x="97.412109"
             xlink:href="#DejaVuSans-51"
             id="use5669"
             y="0"
             width="100%"
             height="100%" />
          <use
             x="161.03516"
             xlink:href="#DejaVuSans-45"
             id="use5671"
             y="0"
             width="100%"
             height="100%" />
          <use
             x="197.11914"
             xlink:href="#DejaVuSans-51"
             id="use5673"
             y="0"
             width="100%"
             height="100%" />
          <use
             x="260.74219"
             xlink:href="#DejaVuSans-51"
             id="use5675"
             y="0"
             width="100%"
             height="100%" />
          <use
             x="324.36523"
             xlink:href="#DejaVuSans-56"
             id="use5677"
             y="0"
             width="100%"
             height="100%" />
        </g>
      </g>
    </g>
    <g
       id="text_16">
      <g
         clip-path="url(#p4aab9bb150)"
         id="g5698">
        <!-- m3-337 -->
        <g
           style="fill:#ffffff"
           transform="matrix(0.02,0,0,-0.02,64.810645,134.52362)"
           id="g5696">
          <use
             xlink:href="#DejaVuSans-109"
             id="use5684"
             x="0"
             y="0"
             width="100%"
             height="100%" />
          <use
             x="97.412109"
             xlink:href="#DejaVuSans-51"
             id="use5686"
             y="0"
             width="100%"
             height="100%" />
          <use
             x="161.03516"
             xlink:href="#DejaVuSans-45"
             id="use5688"
             y="0"
             width="100%"
             height="100%" />
          <use
             x="197.11914"
             xlink:href="#DejaVuSans-51"
             id="use5690"
             y="0"
             width="100%"
             height="100%" />
          <use
             x="260.74219"
             xlink:href="#DejaVuSans-51"
             id="use5692"
             y="0"
             width="100%"
             height="100%" />
          <use
             x="324.36523"
             xlink:href="#DejaVuSans-55"
             id="use5694"
             y="0"
             width="100%"
             height="100%" />
        </g>
      </g>
    </g>
    <g
       id="text_17">
      <g
         clip-path="url(#p4aab9bb150)"
         id="g5718">
        <!-- m3-294 -->
        <defs
           id="defs5702">
          <path
             d="M 37.796875,64.3125 12.890625,25.390625 h 24.90625 z m -2.59375,8.59375 h 12.40625 V 25.390625 h 10.40625 V 17.1875 H 47.609375 V 0 h -9.8125 V 17.1875 H 4.890625 v 9.515625 z"
             id="DejaVuSans-52" />
        </defs>
        <g
           style="fill:#ffffff"
           transform="matrix(0.02,0,0,-0.02,393.38854,206.93715)"
           id="g5716">
          <use
             xlink:href="#DejaVuSans-109"
             id="use5704"
             x="0"
             y="0"
             width="100%"
             height="100%" />
          <use
             x="97.412109"
             xlink:href="#DejaVuSans-51"
             id="use5706"
             y="0"
             width="100%"
             height="100%" />
          <use
             x="161.03516"
             xlink:href="#DejaVuSans-45"
             id="use5708"
             y="0"
             width="100%"
             height="100%" />
          <use
             x="197.11914"
             xlink:href="#DejaVuSans-50"
             id="use5710"
             y="0"
             width="100%"
             height="100%" />
          <use
             x="260.74219"
             xlink:href="#DejaVuSans-57"
             id="use5712"
             y="0"
             width="100%"
             height="100%" />
          <use
             x="324.36523"
             xlink:href="#DejaVuSans-52"
             id="use5714"
             y="0"
             width="100%"
             height="100%" />
        </g>
      </g>
    </g>
    <g
       id="text_18">
      <g
         clip-path="url(#p4aab9bb150)"
         id="g5735">
        <!-- m3-344 -->
        <g
           style="fill:#ffffff"
           transform="matrix(0.02,0,0,-0.02,46.963341,290.93456)"
           id="g5733">
          <use
             xlink:href="#DejaVuSans-109"
             id="use5721"
             x="0"
             y="0"
             width="100%"
             height="100%" />
          <use
             x="97.412109"
             xlink:href="#DejaVuSans-51"
             id="use5723"
             y="0"
             width="100%"
             height="100%" />
          <use
             x="161.03516"
             xlink:href="#DejaVuSans-45"
             id="use5725"
             y="0"
             width="100%"
             height="100%" />
          <use
             x="197.11914"
             xlink:href="#DejaVuSans-51"
             id="use5727"
             y="0"
             width="100%"
             height="100%" />
          <use
             x="260.74219"
             xlink:href="#DejaVuSans-52"
             id="use5729"
             y="0"
             width="100%"
             height="100%" />
          <use
             x="324.36523"
             xlink:href="#DejaVuSans-52"
             id="use5731"
             y="0"
             width="100%"
             height="100%" />
        </g>
      </g>
    </g>
    <g
       id="text_19">
      <g
         clip-path="url(#p4aab9bb150)"
         id="g5752">
        <!-- m3-204 -->
        <g
           style="fill:#ffffff"
           transform="matrix(0.02,0,0,-0.02,434.75322,215.65814)"
           id="g5750">
          <use
             xlink:href="#DejaVuSans-109"
             id="use5738"
             x="0"
             y="0"
             width="100%"
             height="100%" />
          <use
             x="97.412109"
             xlink:href="#DejaVuSans-51"
             id="use5740"
             y="0"
             width="100%"
             height="100%" />
          <use
             x="161.03516"
             xlink:href="#DejaVuSans-45"
             id="use5742"
             y="0"
             width="100%"
             height="100%" />
          <use
             x="197.11914"
             xlink:href="#DejaVuSans-50"
             id="use5744"
             y="0"
             width="100%"
             height="100%" />
          <use
             x="260.74219"
             xlink:href="#DejaVuSans-48"
             id="use5746"
             y="0"
             width="100%"
             height="100%" />
          <use
             x="324.36523"
             xlink:href="#DejaVuSans-52"
             id="use5748"
             y="0"
             width="100%"
             height="100%" />
        </g>
      </g>
    </g>
    <g
       id="text_20">
      <g
         clip-path="url(#p4aab9bb150)"
         id="g5769">
        <!-- m3-349 -->
        <g
           style="fill:#ffffff"
           transform="matrix(0.02,0,0,-0.02,18.287095,327.67384)"
           id="g5767">
          <use
             xlink:href="#DejaVuSans-109"
             id="use5755"
             x="0"
             y="0"
             width="100%"
             height="100%" />
          <use
             x="97.412109"
             xlink:href="#DejaVuSans-51"
             id="use5757"
             y="0"
             width="100%"
             height="100%" />
          <use
             x="161.03516"
             xlink:href="#DejaVuSans-45"
             id="use5759"
             y="0"
             width="100%"
             height="100%" />
          <use
             x="197.11914"
             xlink:href="#DejaVuSans-51"
             id="use5761"
             y="0"
             width="100%"
             height="100%" />
          <use
             x="260.74219"
             xlink:href="#DejaVuSans-52"
             id="use5763"
             y="0"
             width="100%"
             height="100%" />
          <use
             x="324.36523"
             xlink:href="#DejaVuSans-57"
             id="use5765"
             y="0"
             width="100%"
             height="100%" />
        </g>
      </g>
    </g>
  </g>
  <defs
     id="defs5777">
    <clipPath
       id="p4aab9bb150">
      <rect
         height="345.6"
         width="460.8"
         x="0"
         y="0"
         id="rect5774" />
    </clipPath>
  </defs>
</svg>
